<svg xmlns="http://www.w3.org/2000/svg" viewBox="0 0 128 128" role="img" aria-labelledby="title desc">
  <title id="title">RA AI Systems logo</title>
  <desc id="desc">A geometric RA monogram inside a precision frame.</desc>
  <rect width="128" height="128" rx="24" fill="#101318"/>
  <path d="M26 94V34h29c13 0 22 8 22 20 0 8-4 14-11 17l15 23H67L54 74H39v20H26Zm13-31h15c6 0 10-4 10-9s-4-9-10-9H39v18Z" fill="#F7F3EA"/>
  <path d="M76 94 99 34h12l-23 60H76Z" fill="#18A999"/>
  <path d="M88 75h24l4 11H84l4-11Z" fill="#F7C948"/>
  <path d="M20 20h88" stroke="#6DD3CE" stroke-width="4" stroke-linecap="round"/>
  <path d="M20 108h88" stroke="#E85D75" stroke-width="4" stroke-linecap="round"/>
</svg>
